<?xml version="1.0" encoding="UTF-8"?>
<svg version="1.1" xmlns="http://www.w3.org/2000/svg" width="500" height="500">
<path d="M0 0 C2.39453125 1.546875 2.39453125 1.546875 4.8125 3.75 C9.48418677 7.7987952 14.29406567 11.417102 19.375 14.9375 C25.19133582 18.98677455 30.88443824 23.14122268 36.47485352 27.49633789 C40.57502367 30.6880679 44.75362945 33.75169622 48.96875 36.7890625 C53.46635501 40.06953214 57.90609388 43.42660558 62.34301758 46.78857422 C65.33379102 49.04498765 68.31555382 51.22767242 71.48046875 53.234375 C72.72763672 54.10835937 72.72763672 54.10835937 74 55 C74 55.66 74 56.32 74 57 C74.69609375 57.24234375 75.3921875 57.4846875 76.109375 57.734375 C79.49881192 59.21839873 82.25350959 61.08012763 85.25 63.25 C86.83554687 64.37148437 86.83554687 64.37148437 88.453125 65.515625 C91 68 91 68 92.171875 70.984375 C92 74 92 74 90.01171875 76.54296875 C86.68588979 79.25625852 83.31924246 81.83909231 79.8125 84.3125 C79.18408203 84.76689453 78.55566406 85.22128906 77.90820312 85.68945312 C73.25352444 89 73.25352444 89 71 89 C71 89.66 71 90.32 71 91 C65.58823529 95 65.58823529 95 63 95 C63 95.66 63 96.32 63 97 C60.86521656 98.66704999 58.73011018 100.22011955 56.5 101.75 C55.21293445 102.64756742 53.92647303 103.54600174 52.640625 104.4453125 C52.01478516 104.88133789 51.38894531 105.31736328 50.74414062 105.76660156 C47.91230995 107.76917835 45.17819276 109.89455266 42.453125 112.0390625 C41 113 41 113 39 113 C39 113.66 39 114.32 39 115 C37.03223561 116.54346519 35.06208133 117.96671587 33 119.375 C31.71226932 120.27291763 30.42586267 121.17273636 29.140625 122.07421875 C28.46322266 122.54907715 27.78582031 123.02393555 27.08789062 123.51318359 C23.59087639 126.00345683 20.17356031 128.59769028 16.75 131.1875 C14.76653476 132.67705513 12.78170034 134.16476512 10.79638672 135.65185547 C9.17469215 136.86889779 7.5577559 138.09227427 5.94140625 139.31640625 C5.07386719 139.95449219 4.20632813 140.59257812 3.3125 141.25 C2.22388672 142.06210937 2.22388672 142.06210937 1.11328125 142.890625 C-1.47055938 144.24702193 -3.11998902 144.36298646 -6 144 C-8 142 -8 142 -8.22705078 138.37646484 C-8.22673357 136.82125311 -8.21540299 135.26601949 -8.1953125 133.7109375 C-8.1924826 132.89251373 -8.18965271 132.07408997 -8.18673706 131.23086548 C-8.17552532 128.61209607 -8.15041929 125.99366636 -8.125 123.375 C-8.11497147 121.60156743 -8.1058454 119.82812951 -8.09765625 118.0546875 C-8.07558278 113.70299374 -8.04104644 109.3515545 -8 105 C-8.62506817 105.00368717 -9.25013634 105.00737434 -9.89414597 105.01117325 C-25.10046858 105.09949438 -40.30671257 105.1656949 -55.51322556 105.20724869 C-62.86698363 105.22787773 -70.22057054 105.25600459 -77.57421875 105.30175781 C-83.98335548 105.34161545 -90.39236826 105.36743034 -96.80162549 105.37635398 C-100.19563213 105.38157066 -103.58928416 105.39383805 -106.98317719 105.42292023 C-110.77122749 105.45185134 -114.55853713 105.45596014 -118.34667969 105.45410156 C-119.47308868 105.46848267 -120.59949768 105.48286377 -121.76004028 105.49768066 C-122.79206573 105.49218201 -123.82409119 105.48668335 -124.88739014 105.48101807 C-125.78337292 105.48470524 -126.6793557 105.48839241 -127.60248947 105.49219131 C-130.79020268 104.83777719 -131.99162674 103.50601136 -134 101 C-134.50120544 98.34399414 -134.50120544 98.34399414 -134.50170898 95.28515625 C-134.51108994 94.13716553 -134.52047089 92.9891748 -134.53013611 91.80639648 C-134.51890213 90.57091064 -134.50766815 89.3354248 -134.49609375 88.0625 C-134.49754898 86.79027588 -134.49900421 85.51805176 -134.50050354 84.20727539 C-134.49884318 81.51686628 -134.48935144 78.82786992 -134.46655273 76.13769531 C-134.43816733 72.69420973 -134.44090637 69.2516109 -134.45364285 65.80805969 C-134.46228078 62.51781617 -134.44715018 59.22771578 -134.43359375 55.9375 C-134.43652939 54.70201416 -134.43946503 53.46652832 -134.44248962 52.19360352 C-134.42980545 51.04561279 -134.41712128 49.89762207 -134.40405273 48.71484375 C-134.39864975 47.70542725 -134.39324677 46.69601074 -134.38768005 45.65600586 C-133.92772997 42.5048762 -133.1947632 41.2853634 -131 39 C-128.70991993 38.50780869 -128.70991993 38.50780869 -125.96968079 38.51898193 C-124.93061584 38.51348328 -123.8915509 38.50798462 -122.82099915 38.50231934 C-121.68164413 38.51670044 -120.54228912 38.53108154 -119.3684082 38.54589844 C-118.16828094 38.54531433 -116.96815369 38.54473022 -115.73165894 38.54412842 C-112.44022654 38.54643944 -109.14979501 38.56651212 -105.85853982 38.59442425 C-102.41924752 38.61941261 -98.97994219 38.62177785 -95.54057312 38.62652588 C-89.02754783 38.63896329 -82.5147908 38.67179496 -76.00188369 38.71192384 C-68.58724099 38.75661798 -61.17258555 38.7786226 -53.75784171 38.79870558 C-38.50504597 38.84052723 -23.25261976 38.91388876 -8 39 C-8 26.46 -8 13.92 -8 1 C-5.15755953 -0.42122024 -3.15253744 -0.29470215 0 0 Z " fill="#F4F4F4" transform="translate(271,178)"/>
<path d="" fill="#000000" transform="translate(0,0)"/>
<path d="" fill="#000000" transform="translate(0,0)"/>
<path d="" fill="#000000" transform="translate(0,0)"/>
<path d="" fill="#000000" transform="translate(0,0)"/>
<path d="" fill="#000000" transform="translate(0,0)"/>
<path d="" fill="#000000" transform="translate(0,0)"/>
<path d="" fill="#000000" transform="translate(0,0)"/>
<path d="" fill="#000000" transform="translate(0,0)"/>
<path d="" fill="#000000" transform="translate(0,0)"/>
<path d="" fill="#000000" transform="translate(0,0)"/>
<path d="" fill="#000000" transform="translate(0,0)"/>
<path d="" fill="#000000" transform="translate(0,0)"/>
<path d="" fill="#000000" transform="translate(0,0)"/>
<path d="" fill="#000000" transform="translate(0,0)"/>
<path d="" fill="#000000" transform="translate(0,0)"/>
<path d="" fill="#000000" transform="translate(0,0)"/>
<path d="" fill="#000000" transform="translate(0,0)"/>
<path d="" fill="#000000" transform="translate(0,0)"/>
<path d="" fill="#000000" transform="translate(0,0)"/>
<path d="" fill="#000000" transform="translate(0,0)"/>
<path d="" fill="#000000" transform="translate(0,0)"/>
<path d="" fill="#000000" transform="translate(0,0)"/>
<path d="" fill="#000000" transform="translate(0,0)"/>
<path d="" fill="#000000" transform="translate(0,0)"/>
<path d="" fill="#000000" transform="translate(0,0)"/>
<path d="" fill="#000000" transform="translate(0,0)"/>
<path d="" fill="#000000" transform="translate(0,0)"/>
<path d="" fill="#000000" transform="translate(0,0)"/>
<path d="" fill="#000000" transform="translate(0,0)"/>
<path d="" fill="#000000" transform="translate(0,0)"/>
<path d="" fill="#000000" transform="translate(0,0)"/>
<path d="" fill="#000000" transform="translate(0,0)"/>
<path d="" fill="#000000" transform="translate(0,0)"/>
<path d="" fill="#000000" transform="translate(0,0)"/>
<path d="" fill="#000000" transform="translate(0,0)"/>
<path d="" fill="#000000" transform="translate(0,0)"/>
<path d="" fill="#000000" transform="translate(0,0)"/>
<path d="" fill="#000000" transform="translate(0,0)"/>
<path d="" fill="#000000" transform="translate(0,0)"/>
<path d="" fill="#000000" transform="translate(0,0)"/>
<path d="" fill="#000000" transform="translate(0,0)"/>
<path d="" fill="#000000" transform="translate(0,0)"/>
<path d="" fill="#000000" transform="translate(0,0)"/>
<path d="" fill="#000000" transform="translate(0,0)"/>
<path d="" fill="#000000" transform="translate(0,0)"/>
<path d="" fill="#000000" transform="translate(0,0)"/>
<path d="" fill="#000000" transform="translate(0,0)"/>
<path d="" fill="#000000" transform="translate(0,0)"/>
<path d="" fill="#000000" transform="translate(0,0)"/>
<path d="" fill="#000000" transform="translate(0,0)"/>
<path d="" fill="#000000" transform="translate(0,0)"/>
<path d="" fill="#000000" transform="translate(0,0)"/>
<path d="" fill="#000000" transform="translate(0,0)"/>
<path d="" fill="#000000" transform="translate(0,0)"/>
<path d="" fill="#000000" transform="translate(0,0)"/>
<path d="" fill="#000000" transform="translate(0,0)"/>
<path d="" fill="#000000" transform="translate(0,0)"/>
<path d="" fill="#000000" transform="translate(0,0)"/>
<path d="" fill="#000000" transform="translate(0,0)"/>
<path d="" fill="#000000" transform="translate(0,0)"/>
<path d="" fill="#000000" transform="translate(0,0)"/>
<path d="" fill="#000000" transform="translate(0,0)"/>
<path d="" fill="#000000" transform="translate(0,0)"/>
<path d="" fill="#000000" transform="translate(0,0)"/>
<path d="" fill="#000000" transform="translate(0,0)"/>
<path d="" fill="#000000" transform="translate(0,0)"/>
<path d="" fill="#000000" transform="translate(0,0)"/>
<path d="" fill="#000000" transform="translate(0,0)"/>
<path d="" fill="#000000" transform="translate(0,0)"/>
<path d="" fill="#000000" transform="translate(0,0)"/>
<path d="" fill="#000000" transform="translate(0,0)"/>
<path d="" fill="#000000" transform="translate(0,0)"/>
<path d="" fill="#000000" transform="translate(0,0)"/>
<path d="" fill="#000000" transform="translate(0,0)"/>
<path d="" fill="#000000" transform="translate(0,0)"/>
<path d="" fill="#000000" transform="translate(0,0)"/>
<path d="" fill="#000000" transform="translate(0,0)"/>
<path d="" fill="#000000" transform="translate(0,0)"/>
<path d="" fill="#000000" transform="translate(0,0)"/>
</svg>
