<?xml version="1.0" encoding="UTF-8"?>
<svg version="1.1" xmlns="http://www.w3.org/2000/svg" width="500" height="500">
<path d="M0 0 C0 5.94 0 11.88 0 18 C2.31 18 4.62 18 7 18 C7 12.06 7 6.12 7 0 C36.7 0.495 36.7 0.495 67 1 C67 6.61 67 12.22 67 18 C69.31 18 71.62 18 74 18 C74 12.06 74 6.12 74 0 C93.47 0 112.94 0 133 0 C134.59412284 3.18824568 134.10174735 6.62896662 134.0625 10.125 C134.05798828 10.87910156 134.05347656 11.63320312 134.04882812 12.41015625 C134.03703499 14.27347127 134.01909942 16.13674555 134 18 C135.98 18 137.96 18 140 18 C140 12.39 140 6.78 140 1 C158.48 1 176.96 1 196 1 C196.90476636 55.75924404 197.14995247 110.51279642 196.92462617 165.27827668 C196.9192612 166.58241663 196.9192612 166.58241663 196.91378784 167.91290283 C196.91019436 168.78129783 196.90660087 169.64969284 196.90289849 170.54440284 C196.8786656 176.69145238 196.86752627 182.8384425 196.86184692 188.98553467 C196.85453214 196.57073948 196.82911827 204.15562928 196.7810486 211.74068946 C196.75654888 215.66965393 196.73994485 219.59823701 196.74425697 223.52728462 C196.74788306 227.16681806 196.72808312 230.80547246 196.69019783 234.44480348 C196.67581252 236.39230828 196.68578971 238.33994619 196.69667912 240.28747368 C196.57097508 249.0703322 194.85862374 254.24031533 188.5625 260.375 C182.86559867 263.98766914 177.54999073 264.29506634 171.01300049 264.28520203 C170.11774682 264.29169999 169.22249315 264.29819796 168.30011058 264.30489284 C165.30323435 264.32421839 162.30650177 264.32945064 159.30957031 264.3347168 C157.15651011 264.34565759 155.0034541 264.35744891 152.85040283 264.37002563 C146.98756033 264.40167767 141.12473582 264.42090825 135.26183414 264.43764853 C129.0696089 264.45709778 122.87743177 264.48681954 116.6852417 264.51509094 C106.2306094 264.56124511 95.77596917 264.59961401 85.32128906 264.63305664 C73.39462086 264.6712132 61.46803935 264.7205682 49.54143834 264.77638692 C37.94989554 264.83044699 26.35833379 264.87716804 14.76674652 264.92057228 C9.90236024 264.93884667 5.03799115 264.95927606 0.17362213 264.98166466 C-15.88458433 265.05348255 -31.94175269 265.06758313 -48 265 C-49.92344333 264.99253588 -49.92344333 264.99253588 -51.88574409 264.98492098 C-59.92765306 264.9513321 -67.96863939 264.8882829 -76.0101037 264.7946316 C-78.57423546 264.76727198 -81.13844493 264.74634328 -83.70268393 264.73225152 C-87.26186827 264.71076627 -90.819887 264.66417716 -94.37872314 264.61116028 C-95.42513489 264.60976394 -96.47154664 264.6083676 -97.54966784 264.60692894 C-104.55808387 264.46540528 -111.22105193 263.44480508 -116.58717275 258.55316859 C-120.08018653 254.53544675 -122.25146663 250.95782827 -122.24609566 245.6190834 C-122.25007775 244.74375371 -122.25405985 243.86842402 -122.25816262 242.96656919 C-122.24942409 241.53077705 -122.24942409 241.53077705 -122.24050903 240.065979 C-122.24221788 239.04575677 -122.24392673 238.02553453 -122.24568737 236.97439647 C-122.24898938 233.54568571 -122.23796672 230.11716938 -122.22705078 226.68847656 C-122.22648682 224.23471583 -122.22680293 221.78095475 -122.22793579 219.32719421 C-122.22839167 214.03920223 -122.22270796 208.75127111 -122.21146011 203.46329498 C-122.1952082 195.81777278 -122.18999743 188.17227443 -122.18748413 180.52673683 C-122.18310654 168.12246597 -122.16979571 155.71822142 -122.15087891 143.31396484 C-122.13252176 131.2641615 -122.11836445 119.21436529 -122.10986328 107.16455078 C-122.10933783 106.42183978 -122.10881239 105.67912877 -122.10827102 104.91391137 C-122.10566095 101.18796021 -122.10313353 97.462009 -122.10064721 93.73605776 C-122.07991272 62.82401551 -122.04304189 31.91202154 -122 1 C-103.85 1 -85.7 1 -67 1 C-67 6.61 -67 12.22 -67 18 C-64.69 18 -62.38 18 -60 18 C-60 12.39 -60 6.78 -60 1 C-52.47228366 0.86943347 -44.94456483 0.73901226 -37.41684151 0.60884857 C-33.92161019 0.54840583 -30.42638002 0.48789881 -26.93115234 0.42724609 C-22.91504234 0.35755729 -18.89892758 0.28814591 -14.8828125 0.21875 C-13.62445587 0.19687622 -12.36609924 0.17500244 -11.0696106 0.15246582 C-9.90855804 0.13244507 -8.74750549 0.11242432 -7.55126953 0.09179688 C-6.52534698 0.07403198 -5.49942444 0.05626709 -4.44241333 0.03796387 C-2.96173367 0.01494879 -1.48085851 0 0 0 Z M0 64 C-0.020625 68.269375 -0.04125 72.53875 -0.0625 76.9375 C-0.071604 78.28577881 -0.08070801 79.63405762 -0.09008789 81.02319336 C-0.09258545 82.07643799 -0.09508301 83.12968262 -0.09765625 84.21484375 C-0.10289307 85.29886475 -0.10812988 86.38288574 -0.11352539 87.49975586 C-0.28426897 89.94049948 -0.28426897 89.94049948 1 91 C2.85369611 91.08737645 4.71067541 91.10698153 6.56640625 91.09765625 C7.69111328 91.09443359 8.81582031 91.09121094 9.97460938 91.08789062 C11.75061523 91.07532227 11.75061523 91.07532227 13.5625 91.0625 C14.75037109 91.05798828 15.93824219 91.05347656 17.16210938 91.04882812 C20.10812226 91.03699675 23.05403681 91.02051287 26 91 C26.90589748 86.79976629 27.133734 82.93086435 27.125 78.625 C27.12757813 77.35914063 27.13015625 76.09328125 27.1328125 74.7890625 C27.04808061 70.44775934 27.04808061 70.44775934 26 64 C17.42 64 8.84 64 0 64 Z M47 64 C47 72.91 47 81.82 47 91 C55.25 91 63.5 91 72 91 C72 82.09 72 73.18 72 64 C63.75 64 55.5 64 47 64 Z M93 64 C93 72.91 93 81.82 93 91 C101.25 91 109.5 91 118 91 C118.67355557 86.9586666 119.12220425 83.79708858 119.09765625 79.8203125 C119.09515869 78.98258301 119.09266113 78.14485352 119.09008789 77.28173828 C119.08098389 76.24001465 119.07187988 75.19829102 119.0625 74.125 C119.041875 70.78375 119.02125 67.4425 119 64 C110.42 64 101.84 64 93 64 Z M139 64 C139 72.91 139 81.82 139 91 C147.58 91 156.16 91 165 91 C165 82.09 165 73.18 165 64 C156.42 64 147.84 64 139 64 Z M-91 111 C-91 119.91 -91 128.82 -91 138 C-82.75 138 -74.5 138 -66 138 C-66 129.09 -66 120.18 -66 111 C-74.25 111 -82.5 111 -91 111 Z M-45 111 C-45 119.91 -45 128.82 -45 138 C-36.42 138 -27.84 138 -19 138 C-19 129.09 -19 120.18 -19 111 C-27.58 111 -36.16 111 -45 111 Z M0 111 C-0.020625 115.08375 -0.04125 119.1675 -0.0625 123.375 C-0.071604 124.66196777 -0.08070801 125.94893555 -0.09008789 127.27490234 C-0.09258545 128.28504395 -0.09508301 129.29518555 -0.09765625 130.3359375 C-0.10289307 131.37282715 -0.10812988 132.4097168 -0.11352539 133.47802734 C-0.17140815 135.9959668 -0.17140815 135.9959668 1 138 C9.25 138 17.5 138 26 138 C26.165 135.36 26.33 132.72 26.5 130 C26.55220703 129.1853125 26.60441406 128.370625 26.65820312 127.53125 C27.63526952 119.02552876 27.63526952 119.02552876 26 111 C17.42 111 8.84 111 0 111 Z M47 111 C47 119.91 47 128.82 47 138 C55.25 138 63.5 138 72 138 C72 129.09 72 120.18 72 111 C63.75 111 55.5 111 47 111 Z M93 111 C93 119.91 93 128.82 93 138 C101.25 138 109.5 138 118 138 C118.7321427 134.3392865 119.12797474 131.58697727 119.1328125 127.953125 C119.13410156 127.02628906 119.13539063 126.09945312 119.13671875 125.14453125 C119.13091797 123.71173828 119.13091797 123.71173828 119.125 122.25 C119.12886719 121.27933594 119.13273437 120.30867188 119.13671875 119.30859375 C119.13478516 117.92607422 119.13478516 117.92607422 119.1328125 116.515625 C119.13168457 115.67290039 119.13055664 114.83017578 119.12939453 113.96191406 C119.21620449 111.99652482 119.21620449 111.99652482 118 111 C116.14630389 110.91262355 114.28932459 110.89301847 112.43359375 110.90234375 C110.91463501 110.90609009 110.91463501 110.90609009 109.36499023 110.90991211 C107.42088257 110.92356812 107.42088257 110.92356812 105.4375 110.9375 C101.333125 110.958125 97.22875 110.97875 93 111 Z M139 111 C139 119.91 139 128.82 139 138 C147.58 138 156.16 138 165 138 C165 129.09 165 120.18 165 111 C156.42 111 147.84 111 139 111 Z M-91 158 C-91 166.91 -91 175.82 -91 185 C-82.75 185 -74.5 185 -66 185 C-66 176.09 -66 167.18 -66 158 C-74.25 158 -82.5 158 -91 158 Z M-45 158 C-45 166.91 -45 175.82 -45 185 C-36.42 185 -27.84 185 -19 185 C-18.979375 180.730625 -18.95875 176.46125 -18.9375 172.0625 C-18.928396 170.71422119 -18.91929199 169.36594238 -18.90991211 167.97680664 C-18.90741455 166.92356201 -18.90491699 165.87031738 -18.90234375 164.78515625 C-18.89710693 163.70113525 -18.89187012 162.61711426 -18.88647461 161.50024414 C-18.71573103 159.05950052 -18.71573103 159.05950052 -20 158 C-21.85369611 157.91262355 -23.71067541 157.89301847 -25.56640625 157.90234375 C-27.08536499 157.90609009 -27.08536499 157.90609009 -28.63500977 157.90991211 C-30.57911743 157.92356812 -30.57911743 157.92356812 -32.5625 157.9375 C-36.666875 157.958125 -40.77125 157.97875 -45 158 Z M0 158 C-0.02892385 162.12498538 -0.04677267 166.24994485 -0.0625 170.375 C-0.07087891 171.550625 -0.07925781 172.72625 -0.08789062 173.9375 C-0.09111328 175.05898438 -0.09433594 176.18046875 -0.09765625 177.3359375 C-0.10289307 178.37282715 -0.10812988 179.4097168 -0.11352539 180.47802734 C-0.17140815 182.9959668 -0.17140815 182.9959668 1 185 C9.25 185 17.5 185 26 185 C26.84232076 181.63071698 27.12851658 179.23838899 27.1328125 175.83203125 C27.13410156 174.85685547 27.13539063 173.88167969 27.13671875 172.87695312 C27.13091797 171.36004883 27.13091797 171.36004883 27.125 169.8125 C27.12886719 168.78962891 27.13273437 167.76675781 27.13671875 166.71289062 C27.13478516 165.25592773 27.13478516 165.25592773 27.1328125 163.76953125 C27.13168457 162.87854736 27.13055664 161.98756348 27.12939453 161.06958008 C27.22967071 159.00913567 27.22967071 159.00913567 26 158 C24.07332493 157.91251793 22.14348139 157.89302666 20.21484375 157.90234375 C19.04501953 157.90556641 17.87519531 157.90878906 16.66992188 157.91210938 C15.43822266 157.92048828 14.20652344 157.92886719 12.9375 157.9375 C11.70193359 157.94201172 10.46636719 157.94652344 9.19335938 157.95117188 C6.12885883 157.96300392 3.06445279 157.97948827 0 158 Z M47 158 C47 166.91 47 175.82 47 185 C55.25 185 63.5 185 72 185 C72 176.09 72 167.18 72 158 C62.82874039 157.23572837 55.92923961 156.72439434 47 158 Z M93 158 C93 166.91 93 175.82 93 185 C101.58 185 110.16 185 119 185 C119 176.09 119 167.18 119 158 C116.380625 157.814375 113.76125 157.62875 111.0625 157.4375 C110.2569165 157.37618896 109.45133301 157.31487793 108.62133789 157.25170898 C107.95352295 157.20860596 107.28570801 157.16550293 106.59765625 157.12109375 C105.93258057 157.0739624 105.26750488 157.02683105 104.58227539 156.97827148 C100.7066613 157.01088278 96.85204616 157.57199487 93 158 Z M139 158 C139 166.91 139 175.82 139 185 C144.878125 185.061875 144.878125 185.061875 150.875 185.125 C152.10976074 185.14320801 153.34452148 185.16141602 154.61669922 185.18017578 C155.58623535 185.1851709 156.55577148 185.19016602 157.5546875 185.1953125 C159.04718018 185.21102295 159.04718018 185.21102295 160.56982422 185.22705078 C163.18171417 185.24379401 163.18171417 185.24379401 165 183 C165.27827252 180.3784358 165.27827252 180.3784358 165.1953125 177.3359375 C165.19031738 176.3257959 165.18532227 175.3156543 165.18017578 174.27490234 C165.16196777 172.98793457 165.14375977 171.7009668 165.125 170.375 C165.08375 166.29125 165.0425 162.2075 165 158 C156.42 158 147.84 158 139 158 Z M-91 205 C-91 213.91 -91 222.82 -91 232 C-82.75 232 -74.5 232 -66 232 C-66 223.09 -66 214.18 -66 205 C-69.81397948 203.72867351 -73.40342217 203.85487376 -77.375 203.875 C-78.50808594 203.86919922 -78.50808594 203.86919922 -79.6640625 203.86328125 C-80.40140625 203.86457031 -81.13875 203.86585938 -81.8984375 203.8671875 C-82.89883057 203.86887939 -82.89883057 203.86887939 -83.91943359 203.87060547 C-86.50751367 203.98461427 -86.50751367 203.98461427 -91 205 Z M-45 204 C-45 213.24 -45 222.48 -45 232 C-36.42 232 -27.84 232 -19 232 C-19 223.42 -19 214.84 -19 206 C-23.23955503 204.30417799 -24.83862214 203.75262113 -29.08203125 203.8046875 C-29.9222583 203.80968262 -30.76248535 203.81467773 -31.62817383 203.81982422 C-33.20441528 203.84713623 -33.20441528 203.84713623 -34.8125 203.875 C-39.8553125 203.936875 -39.8553125 203.936875 -45 204 Z M0 205 C0 213.91 0 222.82 0 232 C8.91 232 17.82 232 27 232 C27 222.76 27 213.52 27 204 C21.7096875 203.9690625 21.7096875 203.9690625 16.3125 203.9375 C15.20946533 203.928396 14.10643066 203.91929199 12.9699707 203.90991211 C12.08913818 203.90741455 11.20830566 203.90491699 10.30078125 203.90234375 C9.40528564 203.89710693 8.50979004 203.89187012 7.5871582 203.88647461 C4.57420684 203.95260999 4.57420684 203.95260999 0 205 Z " fill="#F8F8F7" transform="translate(213,138)"/>
<path d="M0 0 C1.51235937 -0.00967334 1.51235937 -0.00967334 3.05527145 -0.0195421 C4.15584339 -0.01644489 5.25641533 -0.01334769 6.39033794 -0.01015663 C8.15237396 -0.0169533 8.15237396 -0.0169533 9.95000666 -0.02388728 C13.20696069 -0.03435766 16.46377588 -0.03585708 19.72074139 -0.03349853 C23.23482954 -0.0330903 26.74888477 -0.04413004 30.26295757 -0.05361366 C37.1464455 -0.07022356 44.02989917 -0.07572321 50.91340546 -0.07683842 C56.50914214 -0.07778892 62.10486752 -0.0818993 67.70060062 -0.08823967 C83.56774849 -0.10585221 99.43486931 -0.11507854 115.30202702 -0.11357872 C116.15735295 -0.11349881 117.01267887 -0.1134189 117.89392376 -0.11333656 C118.75029482 -0.1132548 119.60666589 -0.11317304 120.48898759 -0.1130888 C134.36694414 -0.11227594 148.24479214 -0.13141354 162.1227173 -0.1596133 C176.37463836 -0.18834434 190.62650649 -0.20215346 204.87845725 -0.20042574 C212.87897302 -0.19976191 220.87937501 -0.20525133 228.87986469 -0.22678185 C235.69188013 -0.24499658 242.50373021 -0.24933866 249.31575946 -0.235763 C252.79023326 -0.22923468 256.26438984 -0.22911074 259.73883343 -0.2464695 C263.50861317 -0.26187648 267.27755892 -0.25264237 271.04732037 -0.23720741 C272.14120014 -0.24749454 273.23507992 -0.25778167 274.36210757 -0.26838052 C281.78336199 -0.20120193 287.51732054 0.84597562 292.96789837 6.32758141 C293.42293743 7.00562828 293.87797649 7.68367516 294.34680462 8.38226891 C294.81989056 9.06547203 295.29297649 9.74867516 295.78039837 10.45258141 C297.62085506 13.39476477 298.03712182 15.12299454 298.04211712 18.57367516 C298.04340618 19.41994469 298.04469524 20.26621422 298.04602337 21.13812828 C298.04215618 22.02306969 298.03828899 22.90801109 298.03430462 23.81976891 C298.03817181 24.7085775 298.04203899 25.59738609 298.04602337 26.51312828 C298.04408978 27.78059898 298.04408978 27.78059898 298.04211712 29.07367516 C298.04098919 29.85170494 298.03986126 30.62973473 298.03869915 31.43134117 C297.90930462 33.25726891 297.90930462 33.25726891 296.90930462 34.25726891 C295.22128477 34.35080054 293.52935254 34.37471681 291.83874798 34.3707943 C290.7577029 34.37071877 289.67665783 34.37064323 288.56285381 34.37056541 C286.79881962 34.36282349 286.79881962 34.36282349 284.99914837 34.35492516 C283.80197689 34.35351021 282.60480541 34.35209526 281.37135601 34.35063744 C277.52981396 34.3450187 273.68832919 34.33246301 269.84680462 34.31976891 C267.24980025 34.31475632 264.65279497 34.310193 262.05578899 34.30609703 C255.67360783 34.29504318 249.29146032 34.27828683 242.90930462 34.25726891 C242.71499607 31.63260881 242.52857224 29.00780126 242.34680462 26.38226891 C242.2907304 25.63590172 242.23465618 24.88953453 242.17688274 24.12055016 C241.79602337 18.48383141 241.79602337 18.48383141 242.90930462 16.25726891 C240.59930462 16.58726891 238.28930462 16.91726891 235.90930462 17.25726891 C235.57930462 22.86726891 235.24930462 28.47726891 234.90930462 34.25726891 C215.43930462 34.25726891 195.96930462 34.25726891 175.90930462 34.25726891 C175.90930462 28.31726891 175.90930462 22.37726891 175.90930462 16.25726891 C173.59930462 16.25726891 171.28930462 16.25726891 168.90930462 16.25726891 C168.92090618 17.47285484 168.93250774 18.68844078 168.94446087 19.94086266 C168.9538374 21.52549654 168.96293775 23.11013208 168.97180462 24.69476891 C168.98018353 25.49721031 168.98856243 26.29965172 168.99719524 27.12640953 C169.00581892 29.17022111 168.96158612 31.21410792 168.90930462 33.25726891 C167.90930462 34.25726891 167.90930462 34.25726891 165.54918194 34.37752342 C164.50327389 34.37530281 163.45736584 34.3730822 162.3797636 34.3707943 C161.19861477 34.37071877 160.01746593 34.37064323 158.80052471 34.37056541 C157.51513302 34.36540413 156.22974133 34.36024284 154.90539837 34.35492516 C153.59724667 34.35351021 152.28909496 34.35209526 150.9413023 34.35063744 C147.45767603 34.346813 143.97409122 34.33698337 140.49048138 34.32593346 C136.93803754 34.31571773 133.38558702 34.31113947 129.83313274 34.30609703 C122.85850458 34.29536102 115.88391086 34.27776483 108.90930462 34.25726891 C108.90930462 28.31726891 108.90930462 22.37726891 108.90930462 16.25726891 C106.59930462 16.25726891 104.28930462 16.25726891 101.90930462 16.25726891 C101.90930462 22.19726891 101.90930462 28.13726891 101.90930462 34.25726891 C94.23402604 34.41029562 86.55868789 34.55905974 78.88318253 34.70023251 C75.31948436 34.76595063 71.75584294 34.83356745 68.1922636 34.90546227 C64.09933828 34.98795456 60.00630083 35.06229847 55.91321087 35.13617516 C54.62781918 35.16321022 53.34242748 35.19024529 52.01808453 35.21809959 C50.83693569 35.23819588 49.65578686 35.25829216 48.43884563 35.27899742 C47.39293758 35.29898293 46.34702953 35.31896843 45.2694273 35.33955956 C42.90930462 35.25726891 42.90930462 35.25726891 41.90930462 34.25726891 C41.82298588 32.91459478 41.80223989 31.56752569 41.81164837 30.22211266 C41.81487103 29.41322594 41.81809368 28.60433922 41.82141399 27.77094078 C41.83398235 26.4957357 41.83398235 26.4957357 41.84680462 25.19476891 C41.85131634 24.340765 41.85582806 23.48676109 41.86047649 22.60687828 C41.87230088 20.49031227 41.89023693 18.37378206 41.90930462 16.25726891 C39.59930462 16.25726891 37.28930462 16.25726891 34.90930462 16.25726891 C34.90930462 22.19726891 34.90930462 28.13726891 34.90930462 34.25726891 C16.75930462 34.25726891 -1.39069538 34.25726891 -20.09069538 34.25726891 C-22.28758421 27.66660243 -21.47600753 18.04808432 -19.08288288 11.49945641 C-14.74747874 4.32831621 -8.47627144 0.01374768 0 0 Z " fill="#F0F0F0" transform="translate(111.09069538116455,97.74273109436035)"/>
<path d="" fill="#000000" transform="translate(0,0)"/>
<path d="" fill="#000000" transform="translate(0,0)"/>
<path d="" fill="#000000" transform="translate(0,0)"/>
<path d="" fill="#000000" transform="translate(0,0)"/>
<path d="" fill="#000000" transform="translate(0,0)"/>
<path d="" fill="#000000" transform="translate(0,0)"/>
<path d="" fill="#000000" transform="translate(0,0)"/>
<path d="" fill="#000000" transform="translate(0,0)"/>
<path d="" fill="#000000" transform="translate(0,0)"/>
<path d="" fill="#000000" transform="translate(0,0)"/>
<path d="" fill="#000000" transform="translate(0,0)"/>
<path d="" fill="#000000" transform="translate(0,0)"/>
<path d="" fill="#000000" transform="translate(0,0)"/>
<path d="" fill="#000000" transform="translate(0,0)"/>
<path d="" fill="#000000" transform="translate(0,0)"/>
<path d="" fill="#000000" transform="translate(0,0)"/>
<path d="" fill="#000000" transform="translate(0,0)"/>
<path d="" fill="#000000" transform="translate(0,0)"/>
<path d="" fill="#000000" transform="translate(0,0)"/>
<path d="" fill="#000000" transform="translate(0,0)"/>
<path d="" fill="#000000" transform="translate(0,0)"/>
<path d="" fill="#000000" transform="translate(0,0)"/>
<path d="" fill="#000000" transform="translate(0,0)"/>
<path d="" fill="#000000" transform="translate(0,0)"/>
<path d="" fill="#000000" transform="translate(0,0)"/>
<path d="" fill="#000000" transform="translate(0,0)"/>
<path d="" fill="#000000" transform="translate(0,0)"/>
<path d="" fill="#000000" transform="translate(0,0)"/>
<path d="" fill="#000000" transform="translate(0,0)"/>
<path d="" fill="#000000" transform="translate(0,0)"/>
<path d="" fill="#000000" transform="translate(0,0)"/>
<path d="" fill="#000000" transform="translate(0,0)"/>
<path d="" fill="#000000" transform="translate(0,0)"/>
<path d="" fill="#000000" transform="translate(0,0)"/>
<path d="" fill="#000000" transform="translate(0,0)"/>
<path d="" fill="#000000" transform="translate(0,0)"/>
<path d="" fill="#000000" transform="translate(0,0)"/>
<path d="" fill="#000000" transform="translate(0,0)"/>
<path d="" fill="#000000" transform="translate(0,0)"/>
<path d="" fill="#000000" transform="translate(0,0)"/>
<path d="" fill="#000000" transform="translate(0,0)"/>
<path d="" fill="#000000" transform="translate(0,0)"/>
<path d="" fill="#000000" transform="translate(0,0)"/>
<path d="" fill="#000000" transform="translate(0,0)"/>
<path d="" fill="#000000" transform="translate(0,0)"/>
<path d="" fill="#000000" transform="translate(0,0)"/>
<path d="" fill="#000000" transform="translate(0,0)"/>
</svg>
